# xmcd
#
# Track frame offsets: 
#        150
#        22329
#        39061
#        57268
#        73747
#        98434
#        115843
#        134185
#        148671
#        164110
#        186536
#        201758
#        223123
#        241143
#        259549
#        276094
#
# Disc length: 3918 seconds
#
# Revision: 24
# Processed by: cddbd v1.5.2PL0 Copyright (c) Steve Scherf et al.
# Submitted via: ExactAudioCopyFreeDBPlugin 1.0
#
DISCID=fa0f4c10
DTITLE=Taylor Swift - RED [CD-1 Deluxe Edition)
DYEAR=2012
DGENRE=Pop
TTITLE0=State Of Grace
TTITLE1=Red
TTITLE2=Treacherous
TTITLE3=I Knew You Were Trouble
TTITLE4=All Too Well
TTITLE5=22
TTITLE6=I Almost Do
TTITLE7=We Are Never Ever Getting Back Together
TTITLE8=Stay Stay Stay
TTITLE9=The Last Time (feat. Gary Lightbody of Snow Patrol)
TTITLE10=Holy Ground
TTITLE11=Sad Beautiful Tragic
TTITLE12=The Lucky One
TTITLE13=Everything Has Changed (feat. Ed Sheeran)
TTITLE14=Starlight
TTITLE15=Begin Again
EXTD=
EXTT0=
EXTT1=
EXTT2=
EXTT3=
EXTT4=
EXTT5=
EXTT6=
EXTT7=
EXTT8=
EXTT9=
EXTT10=
EXTT11=
EXTT12=
EXTT13=
EXTT14=
EXTT15=
PLAYORDER=
